<svg width="20" height="16" viewBox="0 0 20 16" fill="none" xmlns="http://www.w3.org/2000/svg">
<path fill-rule="evenodd" clip-rule="evenodd" d="M20 0.954128C20 0.427178 19.593 0 19.0909 0H0.909091L0.803072 0.00641912C0.350946 0.0615344 0 0.464817 0 0.954128C0 1.48108 0.407014 1.90826 0.909091 1.90826H19.0909L19.1969 1.90184C19.6491 1.84672 20 1.44344 20 0.954128ZM14.3182 7C14.6947 7 15 7.44772 15 8C15 8.51284 14.7368 8.93551 14.3977 8.99327L14.3182 9H0.681818C0.30526 9 0 8.55228 0 8C0 7.48716 0.263209 7.06449 0.602304 7.00673L0.681818 7H14.3182ZM8.59091 14C8.81684 14 9 14.4477 9 15C9 15.5128 8.84207 15.9355 8.63862 15.9933L8.59091 16H0.409091C0.183156 16 0 15.5523 0 15C0 14.4872 0.157926 14.0645 0.361382 14.0067L0.409091 14H8.59091Z" fill="#2E2A2A"/>
</svg>
